<svg version="1.1" id="Layer_1" xmlns="http://www.w3.org/2000/svg" xmlns:xlink="http://www.w3.org/1999/xlink" x="0px" y="0px"
	 width="100%" viewBox="0 0 1536 1536" enable-background="new 0 0 1536 1536" xml:space="preserve">
<path fill="#57494B" opacity="1.000000" stroke="none" 
	d="
M712.000000,1537.000000 
	C474.666718,1537.000000 237.833420,1537.000000 1.000095,1537.000000 
	C1.000064,1025.000122 1.000064,513.000244 1.000032,1.000301 
	C512.999756,1.000201 1024.999512,1.000201 1536.999512,1.000100 
	C1536.999634,512.999695 1536.999634,1024.999390 1536.999756,1536.999512 
	C1262.166626,1537.000000 987.333313,1537.000000 712.000000,1537.000000 
M750.010803,865.476135 
	C750.010803,865.476135 750.468994,865.573914 750.468994,865.573914 
	C750.468994,865.573914 750.861328,865.323120 751.912476,865.283569 
	C752.955139,865.402954 753.997864,865.522278 755.071960,866.253662 
	C755.429016,868.381897 756.089172,870.509155 756.096313,872.638611 
	C756.170471,894.762146 756.180420,916.886169 756.110046,939.009827 
	C756.091553,944.830444 755.414490,950.661377 755.619324,956.467102 
	C755.838928,962.691833 757.865479,964.447021 764.005249,964.513855 
	C774.489990,964.627991 784.977417,964.673645 795.462097,964.575500 
	C816.259705,964.380859 837.055908,963.878479 857.853333,963.841370 
	C916.809631,963.736206 975.766296,963.807434 1034.722778,963.797791 
	C1089.868286,963.788818 1145.013672,963.763977 1200.159180,963.748901 
	C1231.313843,963.740356 1262.468628,963.770630 1293.623169,963.705322 
	C1300.241211,963.691406 1302.179688,960.605957 1299.040649,955.418579 
	C1294.306519,947.595337 1289.499634,939.816101 1284.724854,932.017456 
	C1273.707153,914.021790 1262.842163,895.929749 1251.590698,878.081421 
	C1247.634277,871.805176 1242.730835,866.125793 1237.609619,859.550232 
	C1230.257568,847.160156 1222.993652,834.716736 1215.531128,822.393433 
	C1206.062866,806.757629 1196.130005,791.392822 1187.065430,775.529419 
	C1184.471313,770.989807 1181.457275,770.238831 1177.122559,770.242798 
	C1141.311890,770.275757 1105.501099,770.213501 1069.690430,770.250000 
	C1031.383057,770.288940 993.075684,770.429138 954.768311,770.465088 
	C946.679932,770.472656 946.599609,770.352539 946.590942,761.915955 
	C946.542603,714.763062 946.589355,667.610107 946.499023,620.457397 
	C946.425598,582.127625 946.228699,543.798096 946.031616,505.468719 
	C945.987183,496.819916 945.714661,488.172272 945.441956,479.478943 
	C945.441956,479.478943 945.605591,479.329254 945.605591,479.329254 
	C945.605591,479.329254 945.599060,479.538330 944.530029,479.703949 
	C941.622986,479.610748 938.715881,479.517548 935.776489,479.315125 
	C935.776489,479.315125 935.445251,479.147430 935.445251,479.147430 
	C935.445251,479.147430 935.187317,479.416473 934.114807,479.600647 
	C915.514099,479.578705 896.913330,479.556732 877.872375,479.209717 
	C874.141846,478.587799 870.409363,477.415405 866.681152,477.428894 
	C828.070374,477.569092 789.460632,478.025391 750.849854,478.146759 
	C703.738342,478.294800 656.626160,478.225311 609.514221,478.214600 
	C558.710205,478.203033 507.906189,478.159363 457.102203,478.099884 
	C452.948242,478.095032 448.649567,477.107330 444.667816,477.873688 
	C432.446533,480.225952 420.088837,482.390564 408.253113,486.117371 
	C383.190765,494.008972 362.748962,509.384247 345.276581,528.612793 
	C339.192230,535.308716 334.075500,543.040405 329.429260,550.842468 
	C324.788055,558.635864 320.490601,566.824768 317.453674,575.343323 
	C310.960571,593.556519 308.947144,612.500000 309.713440,631.875916 
	C310.388245,648.937744 314.075043,665.230225 320.718292,680.786316 
	C326.441833,694.188599 333.459656,706.738098 343.202454,718.036926 
	C359.234985,736.629944 377.793640,750.993347 400.962158,759.304688 
	C406.680237,761.355957 412.252716,763.812927 418.376099,766.278198 
	C416.901672,767.868591 415.992767,768.848938 414.133423,769.926758 
	C395.699371,770.090637 377.263397,770.161133 358.834015,770.548462 
	C356.759796,770.592041 353.851196,771.872559 352.806702,773.517456 
	C344.186493,787.092957 335.948761,800.910706 327.529327,814.614624 
	C317.369049,831.152039 307.144196,847.649780 296.401733,864.491333 
	C294.813232,866.160095 292.884735,867.616943 291.691223,869.531860 
	C283.781403,882.223389 275.999817,894.995422 268.232941,907.775513 
	C258.305725,924.110535 248.391708,940.454041 238.599319,956.869873 
	C237.657349,958.448914 236.778534,960.956421 237.413086,962.309448 
	C237.941193,963.435364 240.736923,963.960571 242.528610,963.961365 
	C268.668396,963.973145 294.808594,963.729004 320.947906,963.804443 
	C339.103943,963.856873 357.258789,964.511841 375.414276,964.517517 
	C393.047882,964.523010 410.681213,963.858704 428.315460,963.814087 
	C471.633698,963.704407 514.952454,963.737244 558.270813,963.805054 
	C577.404907,963.834961 595.345215,959.338013 612.878479,951.672363 
	C632.728943,942.993652 649.104797,929.863770 663.632141,914.344299 
	C676.699768,900.384277 685.871582,883.805725 693.499512,865.521851 
	C698.412231,865.545166 703.324890,865.568481 708.625916,865.822937 
	C717.682983,865.742676 726.739990,865.662415 737.178955,865.396484 
	C738.565796,865.486389 739.952698,865.576233 741.571472,865.838806 
	C742.613831,865.786926 743.656250,865.735046 745.983826,865.575806 
	C747.271179,865.503479 748.558533,865.431213 750.010803,865.476135 
M687.173828,1071.490723 
	C687.166321,1072.489258 687.178101,1073.488403 687.148499,1074.486206 
	C686.754028,1087.784302 686.941162,1087.877319 700.172424,1087.137939 
	C703.933228,1086.927856 705.667847,1085.338257 705.713928,1081.672363 
	C705.787109,1075.848755 705.964539,1070.025024 705.938293,1064.202026 
	C705.919434,1060.001465 707.575439,1058.371216 711.991455,1058.476685 
	C717.445068,1058.606934 723.061096,1058.493530 728.361267,1057.348389 
	C749.556030,1052.768921 754.868042,1031.223267 746.138245,1014.964844 
	C741.441589,1006.217651 732.819153,1003.678528 723.770142,1003.136963 
	C714.314575,1002.570923 704.805603,1002.861877 695.319885,1002.846619 
	C687.732300,1002.834412 686.942749,1003.563110 686.952209,1011.076111 
	C686.977234,1030.881714 687.092041,1050.687378 687.173828,1071.490723 
M892.458862,1059.589233 
	C895.927673,1066.747925 893.071594,1072.186768 885.142029,1072.015137 
	C880.337524,1071.911255 875.548157,1069.943970 870.808716,1068.611938 
	C869.079163,1068.125854 867.566040,1066.915527 865.862671,1066.281128 
	C861.906921,1064.807861 859.568909,1066.223633 858.468323,1070.346680 
	C856.157288,1079.004517 856.742065,1080.393311 865.079712,1084.122314 
	C866.598450,1084.801636 868.155334,1085.395264 869.687256,1086.045776 
	C880.955078,1090.829590 896.193176,1087.842285 905.144165,1079.507568 
	C914.919312,1070.405396 916.095642,1046.530151 898.259399,1040.411499 
	C892.762878,1038.526123 887.442139,1036.052490 882.208069,1033.504883 
	C878.903931,1031.896484 876.530579,1029.176392 877.265747,1025.101562 
	C877.965576,1021.222595 880.566589,1019.134399 884.419983,1018.434326 
	C889.996643,1017.421143 894.924438,1018.311462 899.103760,1022.523621 
	C902.168030,1025.612061 904.015991,1025.203247 905.907471,1021.339111 
	C907.002075,1019.103027 907.881531,1016.761658 908.976562,1014.525818 
	C911.368774,1009.640808 910.526428,1006.626831 905.233032,1005.474976 
	C898.643005,1004.041016 891.841125,1003.091187 885.105469,1002.918274 
	C871.217529,1002.561768 862.357971,1009.704163 859.569397,1023.295044 
	C857.682007,1032.494019 859.896851,1045.723877 873.058105,1050.142822 
	C876.839661,1051.412354 880.573730,1052.878052 884.200378,1054.536255 
	C886.881958,1055.762207 889.354126,1057.446167 892.458862,1059.589233 
M551.802551,1024.489136 
	C556.069275,1022.991516 560.955139,1011.239014 558.685913,1007.666016 
	C558.106445,1006.753662 557.024597,1005.833801 556.007019,1005.576782 
	C545.783569,1002.994629 535.556213,1000.797241 525.072937,1004.569763 
	C515.159485,1008.137268 509.284210,1016.614075 509.050690,1028.160645 
	C508.851440,1038.013184 514.276428,1046.322754 523.514587,1050.007935 
	C528.147583,1051.856079 532.987427,1053.205322 537.555847,1055.189697 
	C542.480713,1057.328979 544.639587,1061.624756 543.570251,1066.006714 
	C542.599426,1069.984863 538.454285,1073.284912 533.451660,1072.180664 
	C527.621765,1070.893677 521.928162,1068.423950 516.601379,1065.649658 
	C513.723328,1064.150635 512.307068,1063.878296 510.594543,1066.716431 
	C504.524719,1076.775757 505.291260,1079.377075 515.990845,1084.285645 
	C516.899475,1084.702515 517.773926,1085.212769 518.712219,1085.543579 
	C540.685242,1093.291260 559.992310,1083.371338 560.947815,1059.457642 
	C561.330200,1049.888916 556.189758,1042.481323 547.190735,1038.993042 
	C541.760071,1036.888062 536.251343,1034.907959 531.034546,1032.348267 
	C525.292297,1029.530884 524.875244,1023.882507 529.726013,1019.872620 
	C534.248291,1016.134399 541.610840,1016.226257 546.368408,1020.125427 
	C548.032043,1021.488831 549.614075,1022.951843 551.802551,1024.489136 
M956.189514,1075.043823 
	C956.336426,1058.394653 956.359436,1041.743164 956.693787,1025.097656 
	C956.820618,1018.785278 959.013672,1017.225403 965.233887,1017.876526 
	C968.377258,1018.205505 971.516174,1018.711609 974.665466,1018.786011 
	C976.024048,1018.818054 978.507996,1018.108948 978.593201,1017.480774 
	C979.116943,1013.615051 979.703552,1009.553772 978.945374,1005.826843 
	C978.672241,1004.484192 974.745911,1003.104797 972.469849,1003.075806 
	C957.318359,1002.882568 942.160461,1003.216187 927.008301,1003.047791 
	C915.427368,1002.919067 915.496094,1002.707520 914.663635,1014.043152 
	C914.429504,1017.230530 915.612244,1018.811768 918.748474,1018.905518 
	C922.408997,1019.015015 926.077698,1018.945129 929.731995,1019.148865 
	C935.374146,1019.463501 936.904358,1020.862488 936.906006,1026.470703 
	C936.911011,1043.286865 936.920532,1060.107788 936.530396,1076.917603 
	C936.295288,1087.048828 936.023621,1087.066895 945.846619,1086.928711 
	C956.438416,1086.779785 957.062805,1088.336548 956.189514,1075.043823 
M780.583862,1009.929565 
	C780.381958,1003.320251 780.157227,1003.099976 773.777100,1003.175476 
	C772.277893,1003.193237 770.778076,1003.208191 769.279114,1003.186584 
	C761.755432,1003.077942 761.060852,1003.703308 761.033813,1011.434875 
	C760.991272,1023.598022 761.070679,1035.761475 761.048401,1047.924805 
	C761.027954,1059.088501 760.956299,1070.252197 760.873718,1081.415649 
	C760.851562,1084.409180 761.479614,1086.744995 765.159729,1086.773438 
	C779.821045,1086.886841 794.482178,1087.030029 809.143372,1087.156006 
	C812.256104,1087.182739 813.703552,1085.505493 813.765503,1082.507568 
	C813.796448,1081.009888 813.810059,1079.505859 813.711182,1078.012695 
	C813.299072,1071.786133 812.714233,1071.221680 806.572998,1071.113037 
	C800.408936,1071.004150 794.243958,1070.943359 788.079773,1070.842773 
	C780.733643,1070.722778 779.854492,1069.824829 779.939575,1062.305054 
	C780.133667,1045.145508 780.361389,1027.986206 780.583862,1009.929565 
M570.684875,1039.495728 
	C570.719177,1051.152466 570.810181,1062.809326 570.773254,1074.465942 
	C570.728394,1088.615967 571.028992,1088.755737 584.977356,1087.805054 
	C589.788269,1087.477173 591.360229,1085.494751 591.302979,1080.986450 
	C591.210144,1073.662598 591.200378,1066.318481 591.697693,1059.019775 
	C591.824402,1057.160400 593.754639,1054.297974 595.288086,1053.980225 
	C596.788513,1053.669312 599.398315,1055.623291 600.554504,1057.264282 
	C606.105225,1065.142334 611.085266,1073.427124 616.737549,1081.227295 
	C622.191162,1088.753418 632.930725,1090.506714 641.860229,1085.557373 
	C641.086914,1083.676514 640.550171,1081.564209 639.443298,1079.812134 
	C633.050049,1069.692749 626.668640,1059.560303 619.995056,1049.625732 
	C614.348938,1041.220581 614.183777,1041.010742 620.519165,1033.302246 
	C621.153381,1032.530762 621.829407,1031.793701 622.470642,1031.027710 
	C628.872375,1023.381104 635.369019,1015.810913 641.628235,1008.049255 
	C644.690552,1004.251892 643.940002,1002.552917 639.104980,1001.983154 
	C635.813293,1001.595337 632.437073,1001.955017 629.134338,1001.624268 
	C623.335083,1001.043518 619.383240,1003.484436 616.105164,1008.138733 
	C610.453979,1016.162231 604.503357,1023.978210 598.543640,1031.778198 
	C597.378357,1033.303223 595.600037,1034.359619 594.104492,1035.632202 
	C593.428162,1035.388916 592.751892,1035.145630 592.075562,1034.902222 
	C592.075562,1027.843872 591.988037,1020.784119 592.095032,1013.727356 
	C592.278625,1001.616394 591.980713,1001.260681 580.110657,1001.484375 
	C579.611450,1001.493774 579.111755,1001.477173 578.612244,1001.470032 
	C571.694397,1001.370850 570.543945,1002.434326 570.527649,1009.519409 
	C570.505432,1019.177979 570.618958,1028.836792 570.684875,1039.495728 
M836.462341,1087.161255 
	C844.884399,1087.255859 845.271912,1086.813477 845.246582,1078.627930 
	C845.180115,1057.170532 845.127930,1035.712769 845.170593,1014.255493 
	C845.193665,1002.658142 845.286499,1002.658386 833.725586,1003.029785 
	C827.254944,1003.237732 826.378845,1004.079285 826.327271,1010.757568 
	C826.157776,1032.716187 826.070129,1054.675293 825.893677,1076.633789 
	C825.815125,1086.412354 825.752808,1086.411865 836.462341,1087.161255 
M651.122742,1002.652344 
	C650.541687,1005.003845 649.527649,1007.345032 649.471558,1009.708984 
	C649.361328,1014.355530 649.968750,1019.015442 649.952454,1023.668640 
	C649.891907,1040.963135 650.079224,1058.271606 649.432861,1075.546997 
	C648.930786,1088.968018 650.452820,1088.912598 663.841858,1088.641846 
	C670.480713,1088.507568 671.645813,1087.274902 671.704773,1080.647949 
	C671.919495,1056.506958 672.103455,1032.365356 672.392761,1008.225281 
	C672.440674,1004.229187 670.724548,1001.383972 666.906494,1001.224487 
	C661.870728,1001.013977 656.792664,1001.817627 651.122742,1002.652344 
z"/>
<path fill="#131004" opacity="1.000000" stroke="none" 
	d="
M935.808838,479.424377 
	C938.715881,479.517548 941.622986,479.610748 945.051514,479.617950 
	C945.572998,479.531952 945.547119,479.524109 945.547119,479.524109 
	C945.714661,488.172272 945.987183,496.819916 946.031616,505.468719 
	C946.228699,543.798096 946.425598,582.127625 946.499023,620.457397 
	C946.589355,667.610107 946.542603,714.763062 946.590942,761.915955 
	C946.599609,770.352539 946.679932,770.472656 954.768311,770.465088 
	C993.075684,770.429138 1031.383057,770.288940 1069.690430,770.250000 
	C1105.501099,770.213501 1141.311890,770.275757 1177.122559,770.242798 
	C1181.457275,770.238831 1184.471313,770.989807 1187.065430,775.529419 
	C1196.130005,791.392822 1206.062866,806.757629 1215.531128,822.393433 
	C1222.993652,834.716736 1230.257568,847.160156 1237.990112,860.019836 
	C1238.690186,861.841675 1239.009644,863.193909 1239.520264,865.355286 
	C1235.509155,865.355286 1232.199463,865.361816 1228.889648,865.354370 
	C1171.263184,865.225159 1113.636841,865.047607 1056.010376,864.975952 
	C990.389221,864.894348 924.767883,864.920044 859.146667,864.857483 
	C852.946899,864.851562 852.344910,864.164001 852.323792,857.860413 
	C852.246399,834.709717 852.209717,811.558838 852.171814,788.408020 
	C852.108337,749.603333 852.055664,710.798584 852.071106,671.601685 
	C852.217896,669.550171 852.349731,667.891052 852.357788,666.231323 
	C852.525024,631.843262 852.723022,597.455200 852.811646,563.066895 
	C852.845886,549.791138 852.625732,536.514771 852.603271,522.908813 
	C853.844055,519.435242 855.003052,516.291565 856.435791,512.952026 
	C859.831726,507.863037 862.917603,502.946228 866.085205,498.082611 
	C870.126465,491.877502 874.233765,485.715393 878.312622,479.534760 
	C896.913330,479.556732 915.514099,479.578705 934.714233,479.542908 
	C935.313599,479.485199 935.567444,479.496918 935.567444,479.496918 
	C935.567444,479.496918 935.808838,479.424377 935.808838,479.424377 
z"/>
<path fill="#131104" opacity="1.000000" stroke="none" 
	d="
M296.947296,864.164734 
	C307.144196,847.649780 317.369049,831.152039 327.529327,814.614624 
	C335.948761,800.910706 344.186493,787.092957 352.806702,773.517456 
	C353.851196,771.872559 356.759796,770.592041 358.834015,770.548462 
	C377.263397,770.161133 395.699371,770.090637 414.849548,769.897888 
	C465.213287,770.088928 514.860840,770.308838 565.001160,770.661743 
	C566.136475,770.958862 566.779114,771.123047 567.636719,771.501587 
	C572.595459,773.831299 577.339172,775.946716 582.363525,778.259583 
	C582.834595,778.584045 583.024902,778.710999 583.278870,779.034302 
	C584.054260,779.700073 584.766052,780.169556 585.868958,780.918884 
	C586.519165,781.387756 586.778137,781.576782 587.061340,781.985718 
	C587.736389,782.738220 588.387207,783.270752 589.475464,784.265442 
	C590.220703,785.019409 590.528564,785.311279 590.833984,785.851074 
	C606.086548,804.793518 604.573730,829.085754 594.045471,843.600464 
	C591.332764,847.340454 588.261841,850.820557 585.048096,854.771729 
	C584.533020,855.355469 584.325378,855.587463 583.921936,855.756592 
	C582.763123,856.476135 581.800049,857.258484 580.601501,858.222534 
	C580.210693,858.527588 580.055420,858.651001 579.602539,858.788086 
	C572.566650,860.820312 565.922974,863.306091 559.057495,864.697327 
	C554.281067,865.665222 549.200012,865.130127 543.786316,865.239502 
	C541.126770,865.220642 538.936035,865.228882 536.614258,865.172852 
	C536.483276,865.108582 536.216980,865.227600 535.763184,865.203186 
	C533.457092,865.191406 531.604797,865.204041 529.311523,865.104248 
	C528.372925,864.954285 527.875305,864.883362 527.377808,864.883850 
	C455.336334,864.956421 383.294891,865.052429 311.253418,865.070435 
	C306.484772,865.071655 301.716003,864.480408 296.947296,864.164734 
z"/>
<path fill="#150F03" opacity="1.000000" stroke="none" 
	d="
M708.237610,865.591797 
	C703.324890,865.568481 698.412231,865.545166 692.812866,865.411804 
	C692.225830,863.434875 692.103394,861.523438 692.466736,859.709412 
	C693.556091,854.271545 694.835266,848.871643 696.216919,842.977417 
	C696.538086,841.832397 696.682678,841.166931 697.045410,840.332520 
	C697.375793,837.898193 697.488037,835.632874 697.703064,832.862610 
	C697.869629,830.641479 697.933472,828.925171 698.142456,826.901123 
	C698.232849,819.638123 698.178101,812.682800 698.109253,805.222412 
	C697.917725,803.045166 697.740295,801.373047 697.686401,799.349976 
	C696.264099,791.346924 694.681580,783.702026 693.200745,776.037354 
	C692.868958,774.320190 692.893677,772.534180 693.226501,770.900024 
	C697.670105,771.100281 701.642578,771.287537 705.612427,771.241882 
	C722.494202,771.047607 739.375061,770.784424 756.525574,770.839905 
	C757.086365,772.226868 757.630798,773.320007 757.632446,774.413940 
	C757.676758,803.434143 757.701355,832.454529 757.551575,861.474060 
	C757.544434,862.867493 755.914673,864.252625 755.040527,865.641602 
	C753.997864,865.522278 752.955139,865.402954 751.274292,865.281982 
	C750.368164,865.263977 750.104797,865.290161 749.845886,865.358887 
	C748.558533,865.431213 747.271179,865.503479 745.178223,865.598328 
	C743.361572,865.635986 742.350525,865.651062 741.339539,865.666138 
	C739.952698,865.576233 738.565796,865.486389 736.158142,865.442993 
	C726.170776,865.523560 717.204163,865.557678 708.237610,865.591797 
z"/>
<path fill="#8C3535" opacity="1.000000" stroke="none" 
	d="
M755.056274,865.947632 
	C755.914673,864.252625 757.544434,862.867493 757.551575,861.474060 
	C757.701355,832.454529 757.676758,803.434143 757.632446,774.413940 
	C757.630798,773.320007 757.086365,772.226868 756.532471,770.402344 
	C756.209351,741.696289 756.055786,713.720764 756.177612,685.746521 
	C756.198364,680.996826 757.401733,676.252319 758.328857,671.420166 
	C759.058289,671.023010 759.517639,670.711060 760.274231,670.405029 
	C760.962463,670.350220 761.353455,670.289368 762.113403,670.344910 
	C764.718628,670.366943 766.954956,670.272583 769.647156,670.210022 
	C794.171143,670.248901 818.239563,670.191406 842.306702,670.339600 
	C845.540527,670.359497 848.768066,671.416931 851.998474,671.993896 
	C852.055664,710.798584 852.108337,749.603333 852.171814,788.408020 
	C852.209717,811.558838 852.246399,834.709717 852.323792,857.860413 
	C852.344910,864.164001 852.946899,864.851562 859.146667,864.857483 
	C924.767883,864.920044 990.389221,864.894348 1056.010376,864.975952 
	C1113.636841,865.047607 1171.263184,865.225159 1228.889648,865.354370 
	C1232.199463,865.361816 1235.509155,865.355286 1239.520264,865.355286 
	C1239.009644,863.193909 1238.690186,861.841675 1238.315186,860.331665 
	C1242.730835,866.125793 1247.634277,871.805176 1251.590698,878.081421 
	C1262.842163,895.929749 1273.707153,914.021790 1284.724854,932.017456 
	C1289.499634,939.816101 1294.306519,947.595337 1299.040649,955.418579 
	C1302.179688,960.605957 1300.241211,963.691406 1293.623169,963.705322 
	C1262.468628,963.770630 1231.313843,963.740356 1200.159180,963.748901 
	C1145.013672,963.763977 1089.868286,963.788818 1034.722778,963.797791 
	C975.766296,963.807434 916.809631,963.736206 857.853333,963.841370 
	C837.055908,963.878479 816.259705,964.380859 795.462097,964.575500 
	C784.977417,964.673645 774.489990,964.627991 764.005249,964.513855 
	C757.865479,964.447021 755.838928,962.691833 755.619324,956.467102 
	C755.414490,950.661377 756.091553,944.830444 756.110046,939.009827 
	C756.180420,916.886169 756.170471,894.762146 756.096313,872.638611 
	C756.089172,870.509155 755.429016,868.381897 755.056274,865.947632 
M1262.501343,960.576721 
	C1271.167603,960.542908 1279.833740,960.514038 1288.500000,960.473572 
	C1296.533325,960.436035 1297.198975,959.343689 1292.980103,952.324951 
	C1288.609009,945.053101 1283.956543,937.950928 1279.539429,930.706055 
	C1267.660889,911.222412 1255.822876,891.713989 1244.018066,872.185547 
	C1241.926147,868.724976 1239.023560,867.019653 1234.985596,866.975037 
	C1229.658203,866.916260 1224.332764,866.592712 1219.006226,866.586975 
	C1175.674316,866.540588 1132.342529,866.516968 1089.010620,866.534119 
	C1013.347046,866.563965 937.683472,866.636414 862.019897,866.667358 
	C851.480164,866.671631 850.522461,865.672974 850.525269,855.328979 
	C850.531372,832.829834 850.558838,810.330627 850.557983,787.831482 
	C850.556519,752.666809 850.562195,717.502075 850.510193,682.337463 
	C850.498352,674.328491 849.668152,673.499329 841.564270,673.509521 
	C818.732544,673.538208 795.898010,673.474609 773.070435,673.827881 
	C759.212646,674.042236 758.940247,674.568909 758.965515,688.843750 
	C759.041382,731.664490 759.220642,774.484985 759.292542,817.305725 
	C759.342529,847.125916 759.339722,876.946411 759.247498,906.766418 
	C759.200684,921.920288 758.859192,937.072937 758.738586,952.226868 
	C758.674011,960.347473 759.593201,961.184631 767.523743,961.084167 
	C776.853027,960.965942 786.182373,960.759888 795.511780,960.755554 
	C950.841553,960.683350 1106.171387,960.636902 1262.501343,960.576721 
z"/>
<path fill="#8C3535" opacity="1.000000" stroke="none" 
	d="
M564.508423,770.528748 
	C514.860840,770.308838 465.213287,770.088928 415.324799,769.849121 
	C415.992767,768.848938 416.901672,767.868591 418.376099,766.278198 
	C412.252716,763.812927 406.680237,761.355957 400.962158,759.304688 
	C377.793640,750.993347 359.234985,736.629944 343.202454,718.036926 
	C333.459656,706.738098 326.441833,694.188599 320.718292,680.786316 
	C314.075043,665.230225 310.388245,648.937744 309.713440,631.875916 
	C308.947144,612.500000 310.960571,593.556519 317.453674,575.343323 
	C320.490601,566.824768 324.788055,558.635864 329.429260,550.842468 
	C334.075500,543.040405 339.192230,535.308716 345.276581,528.612793 
	C362.748962,509.384247 383.190765,494.008972 408.253113,486.117371 
	C420.088837,482.390564 432.446533,480.225952 444.667816,477.873688 
	C448.649567,477.107330 452.948242,478.095032 457.102203,478.099884 
	C507.906189,478.159363 558.710205,478.203033 609.514221,478.214600 
	C656.626160,478.225311 703.738342,478.294800 750.849854,478.146759 
	C789.460632,478.025391 828.070374,477.569092 866.681152,477.428894 
	C870.409363,477.415405 874.141846,478.587799 878.092529,479.372253 
	C874.233765,485.715393 870.126465,491.877502 866.085205,498.082611 
	C862.917603,502.946228 859.831726,507.863037 856.321899,512.844604 
	C855.934204,512.932983 855.706421,512.718140 855.807373,512.354126 
	C856.956482,509.935974 857.872742,507.800690 859.076904,505.842438 
	C863.081848,499.329437 867.215149,492.895538 871.248779,486.399963 
	C873.341064,483.030548 872.434570,481.055634 868.383484,480.769989 
	C867.221985,480.688141 866.053345,480.677032 864.888184,480.682037 
	C814.246277,480.898712 763.604492,481.203003 712.962341,481.318695 
	C665.153381,481.427917 617.343811,481.401703 569.534790,481.318054 
	C532.225891,481.252777 494.915710,480.762573 457.609497,480.997375 
	C446.855194,481.065063 435.911560,482.036865 425.404205,484.251862 
	C399.041229,489.809174 376.359955,502.778412 356.797211,521.202332 
	C338.711273,538.235474 325.943695,558.690186 318.794769,582.451172 
	C312.006775,605.012268 311.157990,627.961670 315.417175,651.166260 
	C320.558746,679.177979 333.066956,703.372314 352.790070,723.780762 
	C367.214539,738.706421 384.238129,749.615479 403.753418,757.068909 
	C422.142853,764.092346 440.567963,769.112793 460.553253,768.685486 
	C491.363251,768.026794 522.196289,768.357727 553.018738,768.482422 
	C556.851318,768.497925 560.678650,769.814880 564.508423,770.528748 
z"/>
<path fill="#E42025" opacity="1.000000" stroke="none" 
	d="
M687.172485,1070.991943 
	C687.092041,1050.687378 686.977234,1030.881714 686.952209,1011.076111 
	C686.942749,1003.563110 687.732300,1002.834412 695.319885,1002.846619 
	C704.805603,1002.861877 714.314575,1002.570923 723.770142,1003.136963 
	C732.819153,1003.678528 741.441589,1006.217651 746.138245,1014.964844 
	C754.868042,1031.223267 749.556030,1052.768921 728.361267,1057.348389 
	C723.061096,1058.493530 717.445068,1058.606934 711.991455,1058.476685 
	C707.575439,1058.371216 705.919434,1060.001465 705.938293,1064.202026 
	C705.964539,1070.025024 705.787109,1075.848755 705.713928,1081.672363 
	C705.667847,1085.338257 703.933228,1086.927856 700.172424,1087.137939 
	C686.941162,1087.877319 686.754028,1087.784302 687.148499,1074.486206 
	C687.178101,1073.488403 687.166321,1072.489258 687.172485,1070.991943 
M720.676880,1044.563599 
	C720.676880,1044.563599 720.827454,1044.509399 721.571167,1044.476562 
	C729.804138,1042.713623 733.152527,1039.165894 732.465759,1032.209106 
	C732.411438,1031.495972 732.357117,1030.782959 732.372070,1029.780396 
	C732.397644,1029.476196 732.344421,1029.186646 732.171448,1028.149780 
	C732.057556,1027.395874 731.943665,1026.641968 731.890930,1025.733276 
	C731.898376,1025.550537 731.821594,1025.414917 731.407349,1024.747192 
	C730.889343,1023.831970 730.371338,1022.916748 729.598694,1021.426880 
	C728.623413,1020.685852 727.648132,1019.944885 726.693115,1018.724976 
	C726.693115,1018.724976 726.795959,1018.256714 726.869080,1018.171692 
	C726.869080,1018.171692 726.744446,1018.190125 726.057922,1018.177856 
	C725.383301,1018.051880 724.708740,1017.925903 723.784180,1017.509949 
	C723.186890,1017.373962 722.589539,1017.237915 721.157654,1016.987305 
	C719.757202,1016.896179 718.356750,1016.805054 716.724487,1016.638367 
	C716.476685,1016.598938 716.237671,1016.628601 715.122681,1016.709717 
	C712.026855,1017.423767 708.930969,1018.137878 705.567322,1019.127319 
	C705.641113,1019.805176 705.714966,1020.483032 705.776672,1021.746216 
	C705.787170,1022.136353 705.797668,1022.526428 705.440125,1023.557251 
	C705.288208,1027.344727 705.136292,1031.132202 704.979370,1035.786865 
	C705.715210,1038.781372 706.451050,1041.776001 707.599915,1045.235840 
	C710.750671,1047.824829 713.814514,1047.177002 717.692322,1044.934204 
	C718.545654,1044.855591 719.398926,1044.776978 720.317688,1044.786255 
	C720.317688,1044.786255 720.534241,1044.636108 720.676880,1044.563599 
z"/>
<path fill="#E32227" opacity="1.000000" stroke="none" 
	d="
M892.189209,1059.257690 
	C889.354126,1057.446167 886.881958,1055.762207 884.200378,1054.536255 
	C880.573730,1052.878052 876.839661,1051.412354 873.058105,1050.142822 
	C859.896851,1045.723877 857.682007,1032.494019 859.569397,1023.295044 
	C862.357971,1009.704163 871.217529,1002.561768 885.105469,1002.918274 
	C891.841125,1003.091187 898.643005,1004.041016 905.233032,1005.474976 
	C910.526428,1006.626831 911.368774,1009.640808 908.976562,1014.525818 
	C907.881531,1016.761658 907.002075,1019.103027 905.907471,1021.339111 
	C904.015991,1025.203247 902.168030,1025.612061 899.103760,1022.523621 
	C894.924438,1018.311462 889.996643,1017.421143 884.419983,1018.434326 
	C880.566589,1019.134399 877.965576,1021.222595 877.265747,1025.101562 
	C876.530579,1029.176392 878.903931,1031.896484 882.208069,1033.504883 
	C887.442139,1036.052490 892.762878,1038.526123 898.259399,1040.411499 
	C916.095642,1046.530151 914.919312,1070.405396 905.144165,1079.507568 
	C896.193176,1087.842285 880.955078,1090.829590 869.687256,1086.045776 
	C868.155334,1085.395264 866.598450,1084.801636 865.079712,1084.122314 
	C856.742065,1080.393311 856.157288,1079.004517 858.468323,1070.346680 
	C859.568909,1066.223633 861.906921,1064.807861 865.862671,1066.281128 
	C867.566040,1066.915527 869.079163,1068.125854 870.808716,1068.611938 
	C875.548157,1069.943970 880.337524,1071.911255 885.142029,1072.015137 
	C893.071594,1072.186768 895.927673,1066.747925 892.189209,1059.257690 
z"/>
<path fill="#E32227" opacity="1.000000" stroke="none" 
	d="
M551.517944,1024.429199 
	C549.614075,1022.951843 548.032043,1021.488831 546.368408,1020.125427 
	C541.610840,1016.226257 534.248291,1016.134399 529.726013,1019.872620 
	C524.875244,1023.882507 525.292297,1029.530884 531.034546,1032.348267 
	C536.251343,1034.907959 541.760071,1036.888062 547.190735,1038.993042 
	C556.189758,1042.481323 561.330200,1049.888916 560.947815,1059.457642 
	C559.992310,1083.371338 540.685242,1093.291260 518.712219,1085.543579 
	C517.773926,1085.212769 516.899475,1084.702515 515.990845,1084.285645 
	C505.291260,1079.377075 504.524719,1076.775757 510.594543,1066.716431 
	C512.307068,1063.878296 513.723328,1064.150635 516.601379,1065.649658 
	C521.928162,1068.423950 527.621765,1070.893677 533.451660,1072.180664 
	C538.454285,1073.284912 542.599426,1069.984863 543.570251,1066.006714 
	C544.639587,1061.624756 542.480713,1057.328979 537.555847,1055.189697 
	C532.987427,1053.205322 528.147583,1051.856079 523.514587,1050.007935 
	C514.276428,1046.322754 508.851440,1038.013184 509.050690,1028.160645 
	C509.284210,1016.614075 515.159485,1008.137268 525.072937,1004.569763 
	C535.556213,1000.797241 545.783569,1002.994629 556.007019,1005.576782 
	C557.024597,1005.833801 558.106445,1006.753662 558.685913,1007.666016 
	C560.955139,1011.239014 556.069275,1022.991516 551.517944,1024.429199 
z"/>
<path fill="#8C3535" opacity="1.000000" stroke="none" 
	d="
M696.040344,843.456970 
	C694.835266,848.871643 693.556091,854.271545 692.466736,859.709412 
	C692.103394,861.523438 692.225830,863.434875 692.338501,865.592651 
	C685.871582,883.805725 676.699768,900.384277 663.632141,914.344299 
	C649.104797,929.863770 632.728943,942.993652 612.878479,951.672363 
	C595.345215,959.338013 577.404907,963.834961 558.270813,963.805054 
	C514.952454,963.737244 471.633698,963.704407 428.315460,963.814087 
	C410.681213,963.858704 393.047882,964.523010 375.414276,964.517517 
	C357.258789,964.511841 339.103943,963.856873 320.947906,963.804443 
	C294.808594,963.729004 268.668396,963.973145 242.528610,963.961365 
	C240.736923,963.960571 237.941193,963.435364 237.413086,962.309448 
	C236.778534,960.956421 237.657349,958.448914 238.599319,956.869873 
	C248.391708,940.454041 258.305725,924.110535 268.232941,907.775513 
	C275.999817,894.995422 283.781403,882.223389 291.691223,869.531860 
	C292.884735,867.616943 294.813232,866.160095 296.674500,864.328003 
	C301.716003,864.480408 306.484772,865.071655 311.253418,865.070435 
	C383.294891,865.052429 455.336334,864.956421 527.377808,864.883850 
	C527.875305,864.883362 528.372925,864.954285 529.048767,865.312134 
	C521.765198,865.936829 514.303528,866.498474 506.841370,866.505554 
	C439.536346,866.569275 372.231201,866.565979 304.926239,866.468933 
	C299.975464,866.461792 296.330872,867.787537 293.677826,872.217041 
	C283.591064,889.057800 273.292419,905.771423 263.141602,922.574097 
	C256.685333,933.261169 250.274292,943.977478 244.000275,954.772034 
	C241.705338,958.720642 242.584152,960.081299 247.135147,960.494019 
	C248.293137,960.599060 249.465576,960.561707 250.631363,960.561096 
	C274.954559,960.548767 299.277740,960.515381 323.600952,960.519836 
	C402.735413,960.534363 481.869904,960.528015 561.004333,960.605713 
	C585.453125,960.629700 607.717468,952.867249 627.846619,939.949524 
	C639.632141,932.386169 650.540039,922.866699 660.145996,912.634338 
	C674.232666,897.629150 685.238098,880.313965 690.799561,860.058228 
	C692.334900,854.466370 694.282104,848.987610 696.040344,843.456970 
z"/>
<path fill="#E42025" opacity="1.000000" stroke="none" 
	d="
M956.222046,1075.498901 
	C957.062805,1088.336548 956.438416,1086.779785 945.846619,1086.928711 
	C936.023621,1087.066895 936.295288,1087.048828 936.530396,1076.917603 
	C936.920532,1060.107788 936.911011,1043.286865 936.906006,1026.470703 
	C936.904358,1020.862488 935.374146,1019.463501 929.731995,1019.148865 
	C926.077698,1018.945129 922.408997,1019.015015 918.748474,1018.905518 
	C915.612244,1018.811768 914.429504,1017.230530 914.663635,1014.043152 
	C915.496094,1002.707520 915.427368,1002.919067 927.008301,1003.047791 
	C942.160461,1003.216187 957.318359,1002.882568 972.469849,1003.075806 
	C974.745911,1003.104797 978.672241,1004.484192 978.945374,1005.826843 
	C979.703552,1009.553772 979.116943,1013.615051 978.593201,1017.480774 
	C978.507996,1018.108948 976.024048,1018.818054 974.665466,1018.786011 
	C971.516174,1018.711609 968.377258,1018.205505 965.233887,1017.876526 
	C959.013672,1017.225403 956.820618,1018.785278 956.693787,1025.097656 
	C956.359436,1041.743164 956.336426,1058.394653 956.222046,1075.498901 
z"/>
<path fill="#E0202A" opacity="1.000000" stroke="none" 
	d="
M780.579651,1010.378174 
	C780.361389,1027.986206 780.133667,1045.145508 779.939575,1062.305054 
	C779.854492,1069.824829 780.733643,1070.722778 788.079773,1070.842773 
	C794.243958,1070.943359 800.408936,1071.004150 806.572998,1071.113037 
	C812.714233,1071.221680 813.299072,1071.786133 813.711182,1078.012695 
	C813.810059,1079.505859 813.796448,1081.009888 813.765503,1082.507568 
	C813.703552,1085.505493 812.256104,1087.182739 809.143372,1087.156006 
	C794.482178,1087.030029 779.821045,1086.886841 765.159729,1086.773438 
	C761.479614,1086.744995 760.851562,1084.409180 760.873718,1081.415649 
	C760.956299,1070.252197 761.027954,1059.088501 761.048401,1047.924805 
	C761.070679,1035.761475 760.991272,1023.598022 761.033813,1011.434875 
	C761.060852,1003.703308 761.755432,1003.077942 769.279114,1003.186584 
	C770.778076,1003.208191 772.277893,1003.193237 773.777100,1003.175476 
	C780.157227,1003.099976 780.381958,1003.320251 780.579651,1010.378174 
z"/>
<path fill="#B82F33" opacity="1.000000" stroke="none" 
	d="
M570.679565,1038.995605 
	C570.618958,1028.836792 570.505432,1019.177979 570.527649,1009.519409 
	C570.543945,1002.434326 571.694397,1001.370850 578.612244,1001.470032 
	C579.111755,1001.477173 579.611450,1001.493774 580.110657,1001.484375 
	C591.980713,1001.260681 592.278625,1001.616394 592.095032,1013.727356 
	C591.988037,1020.784119 592.075562,1027.843872 592.075562,1034.902222 
	C592.751892,1035.145630 593.428162,1035.388916 594.104492,1035.632202 
	C595.600037,1034.359619 597.378357,1033.303223 598.543640,1031.778198 
	C604.503357,1023.978210 610.453979,1016.162231 616.105164,1008.138733 
	C619.383240,1003.484436 623.335083,1001.043518 629.134338,1001.624268 
	C632.437073,1001.955017 635.813293,1001.595337 639.104980,1001.983154 
	C643.940002,1002.552917 644.690552,1004.251892 641.628235,1008.049255 
	C635.369019,1015.810913 628.872375,1023.381104 622.470642,1031.027710 
	C621.829407,1031.793701 621.153381,1032.530762 620.519165,1033.302246 
	C614.183777,1041.010742 614.348938,1041.220581 619.995056,1049.625732 
	C626.668640,1059.560303 633.050049,1069.692749 639.443298,1079.812134 
	C640.550171,1081.564209 641.086914,1083.676514 641.860229,1085.557373 
	C632.930725,1090.506714 622.191162,1088.753418 616.737549,1081.227295 
	C611.085266,1073.427124 606.105225,1065.142334 600.554504,1057.264282 
	C599.398315,1055.623291 596.788513,1053.669312 595.288086,1053.980225 
	C593.754639,1054.297974 591.824402,1057.160400 591.697693,1059.019775 
	C591.200378,1066.318481 591.210144,1073.662598 591.302979,1080.986450 
	C591.360229,1085.494751 589.788269,1087.477173 584.977356,1087.805054 
	C571.028992,1088.755737 570.728394,1088.615967 570.773254,1074.465942 
	C570.810181,1062.809326 570.719177,1051.152466 570.679565,1038.995605 
M573.842896,1048.499878 
	C573.866882,1057.987671 573.920227,1067.475708 573.900513,1076.963379 
	C573.892395,1080.841309 573.983093,1084.502930 579.227722,1084.816162 
	C584.540588,1085.133423 587.066467,1083.383301 587.506287,1077.918457 
	C588.079468,1070.795532 588.010498,1063.623413 588.367188,1056.479858 
	C588.527588,1053.269165 588.990479,1050.158936 592.987732,1049.125122 
	C596.886414,1048.116943 599.303528,1049.745850 601.350952,1052.837158 
	C606.955994,1061.300293 612.741150,1069.644531 618.297363,1078.139038 
	C620.852234,1082.044922 624.034912,1084.697510 628.861023,1084.441895 
	C630.893982,1084.334106 633.808105,1084.119873 634.639526,1082.851440 
	C635.447021,1081.619263 634.612915,1078.668457 633.614563,1077.002930 
	C628.227661,1068.015625 622.793091,1059.039917 616.934570,1050.357300 
	C611.003601,1041.567261 610.840637,1041.368408 617.154236,1033.050537 
	C622.783020,1025.634888 628.283325,1018.121094 633.802063,1010.622559 
	C635.917908,1007.747742 635.133850,1006.324707 631.590454,1005.591187 
	C625.651917,1004.361633 621.338074,1006.198669 617.775146,1011.067383 
	C610.109863,1021.542297 602.215271,1031.849854 594.369141,1042.191528 
	C593.246460,1043.671143 591.871399,1044.959473 589.605225,1047.439331 
	C589.039795,1043.366211 588.353821,1040.800903 588.388672,1038.245361 
	C588.511292,1029.263062 589.031250,1020.284485 589.045166,1011.303894 
	C589.048340,1009.248291 588.239075,1006.321411 586.760559,1005.287964 
	C581.157532,1001.371826 573.863708,1005.327820 573.832947,1012.032471 
	C573.778687,1023.854736 573.835022,1035.677490 573.842896,1048.499878 
z"/>
<path fill="#E0202A" opacity="1.000000" stroke="none" 
	d="
M836.010864,1087.124268 
	C825.752808,1086.411865 825.815125,1086.412354 825.893677,1076.633789 
	C826.070129,1054.675293 826.157776,1032.716187 826.327271,1010.757568 
	C826.378845,1004.079285 827.254944,1003.237732 833.725586,1003.029785 
	C845.286499,1002.658386 845.193665,1002.658142 845.170593,1014.255493 
	C845.127930,1035.712769 845.180115,1057.170532 845.246582,1078.627930 
	C845.271912,1086.813477 844.884399,1087.255859 836.010864,1087.124268 
z"/>
<path fill="#8C3535" opacity="1.000000" stroke="none" 
	d="
M651.427734,1002.418823 
	C656.792664,1001.817627 661.870728,1001.013977 666.906494,1001.224487 
	C670.724548,1001.383972 672.440674,1004.229187 672.392761,1008.225281 
	C672.103455,1032.365356 671.919495,1056.506958 671.704773,1080.647949 
	C671.645813,1087.274902 670.480713,1088.507568 663.841858,1088.641846 
	C650.452820,1088.912598 648.930786,1088.968018 649.432861,1075.546997 
	C650.079224,1058.271606 649.891907,1040.963135 649.952454,1023.668640 
	C649.968750,1019.015442 649.361328,1014.355530 649.471558,1009.708984 
	C649.527649,1007.345032 650.541687,1005.003845 651.427734,1002.418823 
M669.016785,1012.646057 
	C668.425720,1009.984131 668.430603,1005.428345 667.130615,1005.019226 
	C663.391296,1003.842529 659.019043,1003.781921 655.128296,1004.516174 
	C653.928223,1004.742676 652.805664,1008.926880 652.786011,1011.308411 
	C652.603027,1033.436890 652.646362,1055.567383 652.675720,1077.697388 
	C652.684753,1084.508423 654.101379,1085.989624 660.233765,1086.043701 
	C667.680725,1086.109375 668.861633,1085.129639 668.894714,1077.998535 
	C668.994202,1056.534912 668.989197,1035.070679 669.016785,1012.646057 
z"/>
<path fill="#8C3535" opacity="1.000000" stroke="none" 
	d="
M708.431763,865.707397 
	C717.204163,865.557678 726.170776,865.523560 735.467163,865.535767 
	C726.739990,865.662415 717.682983,865.742676 708.431763,865.707397 
z"/>
<path fill="#8C3535" opacity="1.000000" stroke="none" 
	d="
M741.455505,865.752441 
	C742.350525,865.651062 743.361572,865.635986 744.535583,865.651978 
	C743.656250,865.735046 742.613831,865.786926 741.455505,865.752441 
z"/>
<path fill="#8C3535" opacity="1.000000" stroke="none" 
	d="
M935.792664,479.369751 
	C935.808838,479.424377 935.567444,479.496918 935.567444,479.496918 
	C935.567444,479.496918 935.313599,479.485199 935.250488,479.450836 
	C935.187317,479.416473 935.445251,479.147430 935.445251,479.147430 
	C935.445251,479.147430 935.776489,479.315125 935.792664,479.369751 
z"/>
<path fill="#8C3535" opacity="1.000000" stroke="none" 
	d="
M749.928345,865.417480 
	C750.104797,865.290161 750.368164,865.263977 750.748657,865.301758 
	C750.861328,865.323120 750.468994,865.573914 750.468994,865.573914 
	C750.468994,865.573914 750.010803,865.476135 749.928345,865.417480 
z"/>
<path fill="#8C3535" opacity="1.000000" stroke="none" 
	d="
M945.494507,479.501526 
	C945.547119,479.524109 945.572998,479.531952 945.586060,479.535156 
	C945.599060,479.538330 945.605591,479.329254 945.605591,479.329254 
	C945.605591,479.329254 945.441956,479.478943 945.494507,479.501526 
z"/>
<path fill="#574A4B" opacity="1.000000" stroke="none" 
	d="
M852.071106,671.601685 
	C848.768066,671.416931 845.540527,670.359497 842.306702,670.339600 
	C818.239563,670.191406 794.171143,670.248901 769.284424,670.063354 
	C766.225342,669.999451 763.984924,670.114014 761.744446,670.228516 
	C761.353455,670.289368 760.962463,670.350220 760.367188,670.029419 
	C763.769287,663.703125 767.341736,657.737610 770.987793,651.817383 
	C786.116272,627.252319 801.266907,602.700867 816.699890,577.985718 
	C818.898987,575.852478 821.264954,574.151794 822.639038,571.857056 
	C829.530396,560.348816 836.046997,548.616028 842.940125,537.108948 
	C845.821716,532.298523 849.309326,527.851135 852.521423,523.238647 
	C852.625732,536.514771 852.845886,549.791138 852.811646,563.066895 
	C852.723022,597.455200 852.525024,631.843262 852.357788,666.231323 
	C852.349731,667.891052 852.217896,669.550171 852.071106,671.601685 
z"/>
<path fill="#8C3535" opacity="1.000000" stroke="none" 
	d="
M852.603271,522.908813 
	C849.309326,527.851135 845.821716,532.298523 842.940125,537.108948 
	C836.046997,548.616028 829.530396,560.348816 822.639038,571.857056 
	C821.264954,574.151794 818.898987,575.852478 816.333740,577.733276 
	C811.596924,577.318604 807.516846,576.997803 803.681702,576.467896 
	C805.885132,576.020264 807.864136,575.473328 809.798035,575.602295 
	C815.137390,575.958435 818.508911,573.430298 821.065552,569.003174 
	C827.456421,557.936646 833.856201,546.870117 840.527832,535.972229 
	C845.358826,528.080933 850.630981,520.459778 855.706421,512.718140 
	C855.706421,512.718140 855.934204,512.932983 856.048096,513.040405 
	C855.003052,516.291565 853.844055,519.435242 852.603271,522.908813 
z"/>
<path fill="#E71D1F" opacity="1.000000" stroke="none" 
	d="
M855.807373,512.354126 
	C850.630981,520.459778 845.358826,528.080933 840.527832,535.972229 
	C833.856201,546.870117 827.456421,557.936646 821.065552,569.003174 
	C818.508911,573.430298 815.137390,575.958435 809.798035,575.602295 
	C807.864136,575.473328 805.885132,576.020264 803.164673,576.528259 
	C796.808228,576.814331 791.213867,576.830811 785.288269,576.678467 
	C777.100708,576.616211 769.244263,576.722778 760.894287,576.832886 
	C759.085632,576.798035 757.770508,576.759644 756.251709,576.500732 
	C755.095520,576.053284 754.143372,575.631104 753.190247,575.628845 
	C739.491333,575.596252 725.791992,575.591370 712.093445,575.679932 
	C710.869629,575.687805 709.650269,576.389648 707.934143,576.801025 
	C698.806396,576.828430 690.173401,576.823914 681.235291,576.643555 
	C675.284668,576.168884 669.639709,575.625122 663.993347,575.610168 
	C617.007690,575.485229 570.021729,575.430969 523.035889,575.412476 
	C500.210510,575.403442 477.372009,575.059448 454.563568,575.710876 
	C434.292938,576.289856 418.382416,585.535278 409.989227,604.325073 
	C401.878265,622.483032 404.506927,640.189575 416.679413,656.103394 
	C418.380157,658.326904 421.196472,659.697205 423.693085,661.621460 
	C424.132568,662.014465 424.375366,662.248352 424.691742,662.748169 
	C425.543213,663.567383 426.321106,664.120667 427.551636,664.928406 
	C428.293427,665.373230 428.582611,665.563538 428.992035,666.029114 
	C431.080841,667.503784 432.919128,669.367188 435.041321,669.783691 
	C442.815521,671.309265 450.673492,673.322449 458.519165,673.409180 
	C490.835175,673.766541 523.158813,673.368225 555.478333,673.514832 
	C563.934387,673.553162 572.636719,673.450745 580.795898,675.305237 
	C614.675659,683.005615 643.107727,700.043213 664.984009,727.293884 
	C677.715393,743.153015 687.306763,760.770142 692.726929,780.484802 
	C694.477539,786.852051 695.958618,793.293457 697.562927,799.700928 
	C697.740295,801.373047 697.917725,803.045166 697.916870,805.492920 
	C697.824829,813.248718 697.911072,820.228821 697.997253,827.208923 
	C697.933472,828.925171 697.869629,830.641479 697.494324,833.012695 
	C697.064331,835.945557 696.945801,838.223511 696.827271,840.501404 
	C696.682678,841.166931 696.538086,841.832397 696.216919,842.977417 
	C694.282104,848.987610 692.334900,854.466370 690.799561,860.058228 
	C685.238098,880.313965 674.232666,897.629150 660.145996,912.634338 
	C650.540039,922.866699 639.632141,932.386169 627.846619,939.949524 
	C607.717468,952.867249 585.453125,960.629700 561.004333,960.605713 
	C481.869904,960.528015 402.735413,960.534363 323.600952,960.519836 
	C299.277740,960.515381 274.954559,960.548767 250.631363,960.561096 
	C249.465576,960.561707 248.293137,960.599060 247.135147,960.494019 
	C242.584152,960.081299 241.705338,958.720642 244.000275,954.772034 
	C250.274292,943.977478 256.685333,933.261169 263.141602,922.574097 
	C273.292419,905.771423 283.591064,889.057800 293.677826,872.217041 
	C296.330872,867.787537 299.975464,866.461792 304.926239,866.468933 
	C372.231201,866.565979 439.536346,866.569275 506.841370,866.505554 
	C514.303528,866.498474 521.765198,865.936829 529.489807,865.424561 
	C531.604797,865.204041 533.457092,865.191406 535.793945,865.303345 
	C536.278503,865.427917 536.575195,865.468628 536.575195,865.468628 
	C536.575195,865.468628 536.745239,865.237061 536.745239,865.237061 
	C538.936035,865.228882 541.126770,865.220642 544.030273,865.453247 
	C552.722412,865.429688 560.790039,865.776794 568.644165,864.644104 
	C572.596191,864.074097 576.160522,860.816589 579.900146,858.774414 
	C580.055420,858.651001 580.210693,858.527588 580.873047,858.285400 
	C582.292664,857.384155 583.205200,856.601807 584.117737,855.819397 
	C584.325378,855.587463 584.533020,855.355469 585.307129,854.793152 
	C587.375854,853.461670 589.192566,852.732910 590.332703,851.417664 
	C603.639221,836.069336 607.389526,818.594238 600.410400,799.500000 
	C598.540649,794.384644 594.097900,790.209778 590.836365,785.603149 
	C590.528564,785.311279 590.220703,785.019409 589.518433,784.043701 
	C588.428345,782.828552 587.732727,782.297119 587.037048,781.765747 
	C586.778137,781.576782 586.519165,781.387756 585.865845,780.680420 
	C584.719482,779.720825 583.967346,779.279419 583.215210,778.838013 
	C583.024902,778.710999 582.834595,778.584045 582.308350,777.997681 
	C577.122192,775.454590 572.271973,773.370911 567.421692,771.287231 
	C566.779114,771.123047 566.136475,770.958862 565.001160,770.661743 
	C560.678650,769.814880 556.851318,768.497925 553.018738,768.482422 
	C522.196289,768.357727 491.363251,768.026794 460.553253,768.685486 
	C440.567963,769.112793 422.142853,764.092346 403.753418,757.068909 
	C384.238129,749.615479 367.214539,738.706421 352.790070,723.780762 
	C333.066956,703.372314 320.558746,679.177979 315.417175,651.166260 
	C311.157990,627.961670 312.006775,605.012268 318.794769,582.451172 
	C325.943695,558.690186 338.711273,538.235474 356.797211,521.202332 
	C376.359955,502.778412 399.041229,489.809174 425.404205,484.251862 
	C435.911560,482.036865 446.855194,481.065063 457.609497,480.997375 
	C494.915710,480.762573 532.225891,481.252777 569.534790,481.318054 
	C617.343811,481.401703 665.153381,481.427917 712.962341,481.318695 
	C763.604492,481.203003 814.246277,480.898712 864.888184,480.682037 
	C866.053345,480.677032 867.221985,480.688141 868.383484,480.769989 
	C872.434570,481.055634 873.341064,483.030548 871.248779,486.399963 
	C867.215149,492.895538 863.081848,499.329437 859.076904,505.842438 
	C857.872742,507.800690 856.956482,509.935974 855.807373,512.354126 
z"/>
<path fill="#8C3535" opacity="1.000000" stroke="none" 
	d="
M590.833984,785.851074 
	C594.097900,790.209778 598.540649,794.384644 600.410400,799.500000 
	C607.389526,818.594238 603.639221,836.069336 590.332703,851.417664 
	C589.192566,852.732910 587.375854,853.461670 585.614502,854.441528 
	C588.261841,850.820557 591.332764,847.340454 594.045471,843.600464 
	C604.573730,829.085754 606.086548,804.793518 590.833984,785.851074 
z"/>
<path fill="#8C3535" opacity="1.000000" stroke="none" 
	d="
M579.602539,858.788086 
	C576.160522,860.816589 572.596191,864.074097 568.644165,864.644104 
	C560.790039,865.776794 552.722412,865.429688 544.499023,865.480225 
	C549.200012,865.130127 554.281067,865.665222 559.057495,864.697327 
	C565.922974,863.306091 572.566650,860.820312 579.602539,858.788086 
z"/>
<path fill="#8C3535" opacity="1.000000" stroke="none" 
	d="
M567.636719,771.501587 
	C572.271973,773.370911 577.122192,775.454590 582.027649,777.800171 
	C577.339172,775.946716 572.595459,773.831299 567.636719,771.501587 
z"/>
<path fill="#8C3535" opacity="1.000000" stroke="none" 
	d="
M583.921936,855.756592 
	C583.205200,856.601807 582.292664,857.384155 581.108582,858.103699 
	C581.800049,857.258484 582.763123,856.476135 583.921936,855.756592 
z"/>
<path fill="#8C3535" opacity="1.000000" stroke="none" 
	d="
M587.061340,781.985718 
	C587.732727,782.297119 588.428345,782.828552 589.081055,783.581665 
	C588.387207,783.270752 587.736389,782.738220 587.061340,781.985718 
z"/>
<path fill="#8C3535" opacity="1.000000" stroke="none" 
	d="
M583.278870,779.034302 
	C583.967346,779.279419 584.719482,779.720825 585.474731,780.400635 
	C584.766052,780.169556 584.054260,779.700073 583.278870,779.034302 
z"/>
<path fill="#8C3535" opacity="1.000000" stroke="none" 
	d="
M536.614258,865.172852 
	C536.745239,865.237061 536.575195,865.468628 536.575195,865.468628 
	C536.575195,865.468628 536.278503,865.427917 536.247742,865.327759 
	C536.216980,865.227600 536.483276,865.108582 536.614258,865.172852 
z"/>
<path fill="#58494A" opacity="1.000000" stroke="none" 
	d="
M758.058655,671.505371 
	C757.401733,676.252319 756.198364,680.996826 756.177612,685.746521 
	C756.055786,713.720764 756.209351,741.696289 756.263184,770.108887 
	C739.375061,770.784424 722.494202,771.047607 705.612427,771.241882 
	C701.642578,771.287537 697.670105,771.100281 693.120850,770.570312 
	C690.887756,766.324280 689.243774,762.523376 687.575806,758.732971 
	C677.827271,736.579956 663.764893,717.567444 644.588135,702.847412 
	C634.491821,695.097412 623.624817,688.023804 612.248291,682.370483 
	C602.706848,677.629211 591.921692,675.390991 582.116089,671.952454 
	C593.507874,671.759094 604.470703,671.580872 615.433716,671.569763 
	C662.975342,671.521729 710.517029,671.522461 758.058655,671.505371 
z"/>
<path fill="#8C3535" opacity="1.000000" stroke="none" 
	d="
M581.687195,672.044495 
	C591.921692,675.390991 602.706848,677.629211 612.248291,682.370483 
	C623.624817,688.023804 634.491821,695.097412 644.588135,702.847412 
	C663.764893,717.567444 677.827271,736.579956 687.575806,758.732971 
	C689.243774,762.523376 690.887756,766.324280 692.648560,770.450073 
	C692.893677,772.534180 692.868958,774.320190 693.200745,776.037354 
	C694.681580,783.702026 696.264099,791.346924 697.686401,799.349976 
	C695.958618,793.293457 694.477539,786.852051 692.726929,780.484802 
	C687.306763,760.770142 677.715393,743.153015 664.984009,727.293884 
	C643.107727,700.043213 614.675659,683.005615 580.795898,675.305237 
	C572.636719,673.450745 563.934387,673.553162 555.478333,673.514832 
	C523.158813,673.368225 490.835175,673.766541 458.519165,673.409180 
	C450.673492,673.322449 442.815521,671.309265 435.041321,669.783691 
	C432.919128,669.367188 431.080841,667.503784 429.303528,666.057983 
	C437.081268,669.363342 444.789581,672.204285 453.408203,672.087891 
	C469.402191,671.871887 485.400208,671.964905 501.396515,671.911133 
	C525.056274,671.831543 548.716064,671.736267 572.429199,671.665771 
	C572.482605,671.683899 572.593933,671.666199 573.064697,671.689941 
	C576.252686,671.823914 578.969910,671.934204 581.687195,672.044495 
z"/>
<path fill="#8C3535" opacity="1.000000" stroke="none" 
	d="
M698.142456,826.901123 
	C697.911072,820.228821 697.824829,813.248718 697.931030,805.998047 
	C698.178101,812.682800 698.232849,819.638123 698.142456,826.901123 
z"/>
<path fill="#8C3535" opacity="1.000000" stroke="none" 
	d="
M697.045410,840.332520 
	C696.945801,838.223511 697.064331,835.945557 697.391602,833.517578 
	C697.488037,835.632874 697.375793,837.898193 697.045410,840.332520 
z"/>
<path fill="#E71C1F" opacity="1.000000" stroke="none" 
	d="
M1262.001221,960.580688 
	C1106.171387,960.636902 950.841553,960.683350 795.511780,960.755554 
	C786.182373,960.759888 776.853027,960.965942 767.523743,961.084167 
	C759.593201,961.184631 758.674011,960.347473 758.738586,952.226868 
	C758.859192,937.072937 759.200684,921.920288 759.247498,906.766418 
	C759.339722,876.946411 759.342529,847.125916 759.292542,817.305725 
	C759.220642,774.484985 759.041382,731.664490 758.965515,688.843750 
	C758.940247,674.568909 759.212646,674.042236 773.070435,673.827881 
	C795.898010,673.474609 818.732544,673.538208 841.564270,673.509521 
	C849.668152,673.499329 850.498352,674.328491 850.510193,682.337463 
	C850.562195,717.502075 850.556519,752.666809 850.557983,787.831482 
	C850.558838,810.330627 850.531372,832.829834 850.525269,855.328979 
	C850.522461,865.672974 851.480164,866.671631 862.019897,866.667358 
	C937.683472,866.636414 1013.347046,866.563965 1089.010620,866.534119 
	C1132.342529,866.516968 1175.674316,866.540588 1219.006226,866.586975 
	C1224.332764,866.592712 1229.658203,866.916260 1234.985596,866.975037 
	C1239.023560,867.019653 1241.926147,868.724976 1244.018066,872.185547 
	C1255.822876,891.713989 1267.660889,911.222412 1279.539429,930.706055 
	C1283.956543,937.950928 1288.609009,945.053101 1292.980103,952.324951 
	C1297.198975,959.343689 1296.533325,960.436035 1288.500000,960.473572 
	C1279.833740,960.514038 1271.167603,960.542908 1262.001221,960.580688 
z"/>
<path fill="#131003" opacity="1.000000" stroke="none" 
	d="
M582.116089,671.952454 
	C578.969910,671.934204 576.252686,671.823914 573.067627,671.636475 
	C572.599915,671.559387 572.375854,671.647705 572.375854,671.647705 
	C548.716064,671.736267 525.056274,671.831543 501.396515,671.911133 
	C485.400208,671.964905 469.402191,671.871887 453.408203,672.087891 
	C444.789581,672.204285 437.081268,669.363342 429.183289,665.782715 
	C428.582611,665.563538 428.293427,665.373230 427.528168,664.709961 
	C426.240753,663.652100 425.429443,663.067139 424.618164,662.482178 
	C424.375366,662.248352 424.132568,662.014465 423.551514,661.324341 
	C422.494598,660.176331 421.756287,659.503662 421.060150,658.789856 
	C403.411224,640.693970 402.203735,613.862488 418.113953,594.384338 
	C428.924225,581.149841 443.425232,577.043701 459.791992,577.067749 
	C531.891357,577.173767 603.990845,577.188721 676.090271,577.214478 
	C677.906921,577.215088 679.723633,576.956909 681.540344,576.819458 
	C690.173401,576.823914 698.806396,576.828430 708.330872,576.932190 
	C724.966675,576.928040 740.710999,576.824646 756.455383,576.721313 
	C757.770508,576.759644 759.085632,576.798035 761.300049,576.962402 
	C770.006042,577.008057 777.812744,576.927734 785.619446,576.847412 
	C791.213867,576.830811 796.808228,576.814331 802.919678,576.737427 
	C807.516846,576.997803 811.596924,577.318604 816.043213,577.891907 
	C801.266907,602.700867 786.116272,627.252319 770.987793,651.817383 
	C767.341736,657.737610 763.769287,663.703125 760.069946,670.023438 
	C759.517639,670.711060 759.058289,671.023010 758.328857,671.420166 
	C710.517029,671.522461 662.975342,671.521729 615.433716,671.569763 
	C604.470703,671.580872 593.507874,671.759094 582.116089,671.952454 
z"/>
<path fill="#58494A" opacity="1.000000" stroke="none" 
	d="
M762.113403,670.344910 
	C763.984924,670.114014 766.225342,669.999451 768.828491,670.031555 
	C766.954956,670.272583 764.718628,670.366943 762.113403,670.344910 
z"/>
<path fill="#8C3535" opacity="1.000000" stroke="none" 
	d="
M716.956299,1016.713989 
	C718.356750,1016.805054 719.757202,1016.896179 721.812012,1017.180664 
	C722.988892,1017.515991 723.511536,1017.657959 724.034119,1017.799866 
	C724.708740,1017.925903 725.383301,1018.051880 726.419189,1018.196289 
	C726.780518,1018.214783 726.795959,1018.256714 726.795959,1018.256714 
	C726.795959,1018.256714 726.693115,1018.724976 726.734131,1019.185547 
	C727.801147,1020.431274 728.827209,1021.216431 729.853271,1022.001526 
	C730.371338,1022.916748 730.889343,1023.831970 731.563599,1025.180542 
	C731.719910,1025.613892 731.829773,1025.888062 731.829773,1025.888062 
	C731.943665,1026.641968 732.057556,1027.395874 732.198303,1028.821655 
	C732.251038,1029.685669 732.276917,1029.877808 732.302734,1030.069824 
	C732.357117,1030.782959 732.411438,1031.495972 732.293701,1032.894775 
	C730.536011,1039.475464 725.301147,1041.599121 720.827454,1044.509399 
	C720.827454,1044.509399 720.676880,1044.563599 720.534119,1044.606079 
	C720.391357,1044.648560 720.252258,1044.698364 720.252258,1044.698364 
	C719.398926,1044.776978 718.545654,1044.855591 716.939941,1044.851318 
	C713.187256,1044.769165 710.187073,1044.769897 707.186829,1044.770508 
	C706.451050,1041.776001 705.715210,1038.781372 705.072632,1034.956299 
	C705.380066,1030.389404 705.594116,1026.652954 705.808228,1022.916565 
	C705.797668,1022.526428 705.787170,1022.136353 705.824097,1021.070190 
	C705.859314,1019.880127 705.847229,1019.366028 705.835083,1018.851929 
	C708.930969,1018.137878 712.026855,1017.423767 715.802002,1016.728882 
	C716.481262,1016.748047 716.956299,1016.713989 716.956299,1016.713989 
M726.774719,1038.121948 
	C727.165283,1037.583496 727.643799,1037.088257 727.932556,1036.499878 
	C730.250000,1031.778320 729.640991,1026.543823 726.401611,1022.997437 
	C723.426575,1019.740417 716.612915,1018.688354 711.433594,1020.662170 
	C706.420288,1022.572754 708.169556,1026.974487 707.862610,1030.547485 
	C707.649963,1033.023682 707.479004,1035.620605 708.013306,1038.000977 
	C708.342529,1039.467773 709.974731,1041.683105 711.122620,1041.746826 
	C716.351807,1042.036987 721.882141,1042.926880 726.774719,1038.121948 
z"/>
<path fill="#B82F33" opacity="1.000000" stroke="none" 
	d="
M721.199341,1044.492920 
	C725.301147,1041.599121 730.536011,1039.475464 732.297668,1033.252686 
	C733.152527,1039.165894 729.804138,1042.713623 721.199341,1044.492920 
z"/>
<path fill="#B82F33" opacity="1.000000" stroke="none" 
	d="
M707.393372,1045.003174 
	C710.187073,1044.769897 713.187256,1044.769165 716.512207,1044.878174 
	C713.814514,1047.177002 710.750671,1047.824829 707.393372,1045.003174 
z"/>
<path fill="#B82F33" opacity="1.000000" stroke="none" 
	d="
M705.624146,1023.236938 
	C705.594116,1026.652954 705.380066,1030.389404 705.075195,1034.522705 
	C705.136292,1031.132202 705.288208,1027.344727 705.624146,1023.236938 
z"/>
<path fill="#B82F33" opacity="1.000000" stroke="none" 
	d="
M729.725952,1021.714233 
	C728.827209,1021.216431 727.801147,1020.431274 726.723999,1019.425049 
	C727.648132,1019.944885 728.623413,1020.685852 729.725952,1021.714233 
z"/>
<path fill="#B82F33" opacity="1.000000" stroke="none" 
	d="
M705.701172,1018.989624 
	C705.847229,1019.366028 705.859314,1019.880127 705.830139,1020.777588 
	C705.714966,1020.483032 705.641113,1019.805176 705.701172,1018.989624 
z"/>
<path fill="#B82F33" opacity="1.000000" stroke="none" 
	d="
M723.909180,1017.654907 
	C723.511536,1017.657959 722.988892,1017.515991 722.229248,1017.237915 
	C722.589539,1017.237915 723.186890,1017.373962 723.909180,1017.654907 
z"/>
<path fill="#B82F33" opacity="1.000000" stroke="none" 
	d="
M726.762451,1018.202454 
	C726.744446,1018.190125 726.869080,1018.171692 726.832520,1018.214233 
	C726.795959,1018.256714 726.780518,1018.214783 726.762451,1018.202454 
z"/>
<path fill="#B82F33" opacity="1.000000" stroke="none" 
	d="
M731.860352,1025.810669 
	C731.829773,1025.888062 731.719910,1025.613892 731.690308,1025.470215 
	C731.821594,1025.414917 731.898376,1025.550537 731.860352,1025.810669 
z"/>
<path fill="#B82F33" opacity="1.000000" stroke="none" 
	d="
M732.337402,1029.925049 
	C732.276917,1029.877808 732.251038,1029.685669 732.218750,1029.202637 
	C732.344421,1029.186646 732.397644,1029.476196 732.337402,1029.925049 
z"/>
<path fill="#B82F33" opacity="1.000000" stroke="none" 
	d="
M716.840393,1016.676147 
	C716.956299,1016.713989 716.481262,1016.748047 716.244385,1016.737671 
	C716.237671,1016.628601 716.476685,1016.598938 716.840393,1016.676147 
z"/>
<path fill="#B82F33" opacity="1.000000" stroke="none" 
	d="
M720.284973,1044.742310 
	C720.252258,1044.698364 720.391357,1044.648560 720.462769,1044.642334 
	C720.534241,1044.636108 720.317688,1044.786255 720.284973,1044.742310 
z"/>
<path fill="#EB1D26" opacity="1.000000" stroke="none" 
	d="
M573.843994,1048.000000 
	C573.835022,1035.677490 573.778687,1023.854736 573.832947,1012.032471 
	C573.863708,1005.327820 581.157532,1001.371826 586.760559,1005.287964 
	C588.239075,1006.321411 589.048340,1009.248291 589.045166,1011.303894 
	C589.031250,1020.284485 588.511292,1029.263062 588.388672,1038.245361 
	C588.353821,1040.800903 589.039795,1043.366211 589.605225,1047.439331 
	C591.871399,1044.959473 593.246460,1043.671143 594.369141,1042.191528 
	C602.215271,1031.849854 610.109863,1021.542297 617.775146,1011.067383 
	C621.338074,1006.198669 625.651917,1004.361633 631.590454,1005.591187 
	C635.133850,1006.324707 635.917908,1007.747742 633.802063,1010.622559 
	C628.283325,1018.121094 622.783020,1025.634888 617.154236,1033.050537 
	C610.840637,1041.368408 611.003601,1041.567261 616.934570,1050.357300 
	C622.793091,1059.039917 628.227661,1068.015625 633.614563,1077.002930 
	C634.612915,1078.668457 635.447021,1081.619263 634.639526,1082.851440 
	C633.808105,1084.119873 630.893982,1084.334106 628.861023,1084.441895 
	C624.034912,1084.697510 620.852234,1082.044922 618.297363,1078.139038 
	C612.741150,1069.644531 606.955994,1061.300293 601.350952,1052.837158 
	C599.303528,1049.745850 596.886414,1048.116943 592.987732,1049.125122 
	C588.990479,1050.158936 588.527588,1053.269165 588.367188,1056.479858 
	C588.010498,1063.623413 588.079468,1070.795532 587.506287,1077.918457 
	C587.066467,1083.383301 584.540588,1085.133423 579.227722,1084.816162 
	C573.983093,1084.502930 573.892395,1080.841309 573.900513,1076.963379 
	C573.920227,1067.475708 573.866882,1057.987671 573.843994,1048.000000 
z"/>
<path fill="#EB1D26" opacity="1.000000" stroke="none" 
	d="
M669.020874,1013.126404 
	C668.989197,1035.070679 668.994202,1056.534912 668.894714,1077.998535 
	C668.861633,1085.129639 667.680725,1086.109375 660.233765,1086.043701 
	C654.101379,1085.989624 652.684753,1084.508423 652.675720,1077.697388 
	C652.646362,1055.567383 652.603027,1033.436890 652.786011,1011.308411 
	C652.805664,1008.926880 653.928223,1004.742676 655.128296,1004.516174 
	C659.019043,1003.781921 663.391296,1003.842529 667.130615,1005.019226 
	C668.430603,1005.428345 668.425720,1009.984131 669.020874,1013.126404 
z"/>
<path fill="#8C3535" opacity="1.000000" stroke="none" 
	d="
M681.235291,576.643555 
	C679.723633,576.956909 677.906921,577.215088 676.090271,577.214478 
	C603.990845,577.188721 531.891357,577.173767 459.791992,577.067749 
	C443.425232,577.043701 428.924225,581.149841 418.113953,594.384338 
	C402.203735,613.862488 403.411224,640.693970 421.060150,658.789856 
	C421.756287,659.503662 422.494598,660.176331 423.354828,661.165283 
	C421.196472,659.697205 418.380157,658.326904 416.679413,656.103394 
	C404.506927,640.189575 401.878265,622.483032 409.989227,604.325073 
	C418.382416,585.535278 434.292938,576.289856 454.563568,575.710876 
	C477.372009,575.059448 500.210510,575.403442 523.035889,575.412476 
	C570.021729,575.430969 617.007690,575.485229 663.993347,575.610168 
	C669.639709,575.625122 675.284668,576.168884 681.235291,576.643555 
z"/>
<path fill="#8C3535" opacity="1.000000" stroke="none" 
	d="
M756.251709,576.500732 
	C740.710999,576.824646 724.966675,576.928040 708.825562,576.900269 
	C709.650269,576.389648 710.869629,575.687805 712.093445,575.679932 
	C725.791992,575.591370 739.491333,575.596252 753.190247,575.628845 
	C754.143372,575.631104 755.095520,576.053284 756.251709,576.500732 
z"/>
<path fill="#8C3535" opacity="1.000000" stroke="none" 
	d="
M785.288269,576.678528 
	C777.812744,576.927734 770.006042,577.008057 761.793579,576.958862 
	C769.244263,576.722778 777.100708,576.616211 785.288269,576.678528 
z"/>
<path fill="#8C3535" opacity="1.000000" stroke="none" 
	d="
M424.691742,662.748169 
	C425.429443,663.067139 426.240753,663.652100 427.075562,664.455444 
	C426.321106,664.120667 425.543213,663.567383 424.691742,662.748169 
z"/>
<path fill="#58494A" opacity="1.000000" stroke="none" 
	d="
M572.429199,671.665771 
	C572.375854,671.647705 572.599915,671.559387 572.596924,671.612793 
	C572.593933,671.666199 572.482605,671.683899 572.429199,671.665771 
z"/>
<path fill="#58494A" opacity="1.000000" stroke="none" 
	d="
M726.515503,1038.407959 
	C721.882141,1042.926880 716.351807,1042.036987 711.122620,1041.746826 
	C709.974731,1041.683105 708.342529,1039.467773 708.013306,1038.000977 
	C707.479004,1035.620605 707.649963,1033.023682 707.862610,1030.547485 
	C708.169556,1026.974487 706.420288,1022.572754 711.433594,1020.662170 
	C716.612915,1018.688354 723.426575,1019.740417 726.401611,1022.997437 
	C729.640991,1026.543823 730.250000,1031.778320 727.932556,1036.499878 
	C727.643799,1037.088257 727.165283,1037.583496 726.515503,1038.407959 
z"/>
</svg>